<svg xmlns="http://www.w3.org/2000/svg" viewBox="0 0 48 48" width="48" height="48">
  <rect width="48" height="48" rx="8" fill="#1c1c1e"/>
  <path d="M12 16h18v16c0 3.3-2.7 6-6 6h-6c-3.3 0-6-2.7-6-6V16z" fill="#f5c538"/>
  <path d="M30 18h4c2.2 0 4 1.8 4 4v2c0 2.2-1.8 4-4 4h-4" fill="none" stroke="#f5c538" stroke-width="2.5" stroke-linecap="round"/>
  <path d="M16 10c0-1 0.5-2 1.5-2s1.5 1.5 1.5 2.5" fill="none" stroke="#f5c538" stroke-width="1.5" stroke-linecap="round" opacity="0.7"/>
  <path d="M21 8c0-1 0.5-2 1.5-2s1.5 1.5 1.5 2.5" fill="none" stroke="#f5c538" stroke-width="1.5" stroke-linecap="round" opacity="0.7"/>
  <path d="M26 10c0-1 0.5-2 1.5-2s1.5 1.5 1.5 2.5" fill="none" stroke="#f5c538" stroke-width="1.5" stroke-linecap="round" opacity="0.7"/>
</svg>
